{
	"asset":{
		"generator":"Khronos glTF Blender I/O v4.1.63",
		"version":"2.0"
	},
	"scene":0,
	"scenes":[
		{
			"name":"Scene",
			"nodes":[
				0
			]
		}
	],
	"nodes":[
		{
			"mesh":0,
			"name":"01_floor2|01_tree_final|Dupli|298.002",
			"rotation":[
				-0.4436538815498352,
				-0.4032627046108246,
				-0.779074490070343,
				0.18328487873077393
			],
			"scale":[
				0.777645468711853,
				0.7776456475257874,
				0.777645468711853
			],
			"translation":[
				0,
				4.192825794219971,
				0
			]
		}
	],
	"materials":[
		{
			"alphaMode":"BLEND",
			"doubleSided":true,
			"name":"leaf 1.001",
			"pbrMetallicRoughness":{
				"baseColorTexture":{
					"index":0
				},
				"metallicFactor":0,
				"roughnessFactor":0.5
			}
		},
		{
			"doubleSided":true,
			"name":"Material.010",
			"normalTexture":{
				"index":1
			},
			"pbrMetallicRoughness":{
				"baseColorTexture":{
					"index":2
				},
				"metallicFactor":0,
				"metallicRoughnessTexture":{
					"index":3
				}
			}
		}
	],
	"meshes":[
		{
			"name":"leaf 1.003",
			"primitives":[
				{
					"attributes":{
						"POSITION":0,
						"NORMAL":1,
						"TEXCOORD_0":2
					},
					"indices":3,
					"material":0
				},
				{
					"attributes":{
						"POSITION":4,
						"NORMAL":5,
						"TEXCOORD_0":6
					},
					"indices":7,
					"material":1
				}
			]
		}
	],
	"textures":[
		{
			"sampler":0,
			"source":0
		},
		{
			"sampler":1,
			"source":1
		},
		{
			"sampler":1,
			"source":2
		},
		{
			"sampler":1,
			"source":3
		}
	],
	"images":[
		{
			"mimeType":"image/png",
			"name":"leaf 1",
			"uri":"leaf%201.png"
		},
		{
			"mimeType":"image/png",
			"name":"bark_willow_02_nor_gl_4k",
			"uri":"bark_willow_02_nor_gl_4k.png"
		},
		{
			"mimeType":"image/jpeg",
			"name":"bark_willow_02_diff_4k",
			"uri":"bark_willow_02_diff_4k.jpg"
		},
		{
			"mimeType":"image/png",
			"name":"bark_willow_02_rough_4k",
			"uri":"bark_willow_02_rough_4k.png"
		}
	],
	"accessors":[
		{
			"bufferView":0,
			"componentType":5126,
			"count":6480,
			"max":[
				6.519989013671875,
				2.1214370727539062,
				13.328926086425781
			],
			"min":[
				-7.03857421875,
				-6.661163330078125,
				-0.6608619689941406
			],
			"type":"VEC3"
		},
		{
			"bufferView":1,
			"componentType":5126,
			"count":6480,
			"type":"VEC3"
		},
		{
			"bufferView":2,
			"componentType":5126,
			"count":6480,
			"type":"VEC2"
		},
		{
			"bufferView":3,
			"componentType":5123,
			"count":18144,
			"type":"SCALAR"
		},
		{
			"bufferView":4,
			"componentType":5126,
			"count":38455,
			"max":[
				6.5843658447265625,
				7.142372131347656,
				12.810192108154297
			],
			"min":[
				-6.095428466796875,
				-6.568046569824219,
				-9.366722106933594
			],
			"type":"VEC3"
		},
		{
			"bufferView":5,
			"componentType":5126,
			"count":38455,
			"type":"VEC3"
		},
		{
			"bufferView":6,
			"componentType":5126,
			"count":38455,
			"type":"VEC2"
		},
		{
			"bufferView":7,
			"componentType":5123,
			"count":175392,
			"type":"SCALAR"
		}
	],
	"bufferViews":[
		{
			"buffer":0,
			"byteLength":77760,
			"byteOffset":0,
			"target":34962
		},
		{
			"buffer":0,
			"byteLength":77760,
			"byteOffset":77760,
			"target":34962
		},
		{
			"buffer":0,
			"byteLength":51840,
			"byteOffset":155520,
			"target":34962
		},
		{
			"buffer":0,
			"byteLength":36288,
			"byteOffset":207360,
			"target":34963
		},
		{
			"buffer":0,
			"byteLength":461460,
			"byteOffset":243648,
			"target":34962
		},
		{
			"buffer":0,
			"byteLength":461460,
			"byteOffset":705108,
			"target":34962
		},
		{
			"buffer":0,
			"byteLength":307640,
			"byteOffset":1166568,
			"target":34962
		},
		{
			"buffer":0,
			"byteLength":350784,
			"byteOffset":1474208,
			"target":34963
		}
	],
	"samplers":[
		{
			"magFilter":9729,
			"minFilter":9987,
			"wrapS":33071,
			"wrapT":33071
		},
		{
			"magFilter":9729,
			"minFilter":9987
		}
	],
	"buffers":[
		{
			"byteLength":1824992,
			"uri":"old_tree.bin"
		}
	]
}
